PathFileType	4	(X/Y/Z)	/Users/itak/Documents/Research/Walk-IL/dataset/trc/00526_00183.trc
DataRate	CameraRate	NumFrames	NumMarkers	Units	OrigDataRate	OrigDataStartFrame	OrigNumFrames
100.000000	100.000000	4	53	mm	100.000000	407	466
Frame#	Time	RPSI			LPSI			L3			STRN			T10			C7			CLAV			RBAK			LBAK			LSHO			LUPA			LAEL			LAOL			LWTS			LFRA			LIFD			LHPS			LHTS			RSHO			RUPA			RAEL			RAOL			RWTS			RWPS			RFRA			RIFD			RHTS			RHPS			RBHD			LFHD			RFHD			LBHD			LHIP			RHIP			RASI			LASI			LKNE			LTHI			LANK			LTIP			LTOE			LMT1			LMT5			LHEE			RKNE			RTHI			RANK			RTIP			RTOE			RMT1			RMT5			RHEE			LWPS			
		X1	Y1	Z1	X2	Y2	Z2	X3	Y3	Z3	X4	Y4	Z4	X5	Y5	Z5	X6	Y6	Z6	X7	Y7	Z7	X8	Y8	Z8	X9	Y9	Z9	X10	Y10	Z10	X11	Y11	Z11	X12	Y12	Z12	X13	Y13	Z13	X14	Y14	Z14	X15	Y15	Z15	X16	Y16	Z16	X17	Y17	Z17	X18	Y18	Z18	X19	Y19	Z19	X20	Y20	Z20	X21	Y21	Z21	X22	Y22	Z22	X23	Y23	Z23	X24	Y24	Z24	X25	Y25	Z25	X26	Y26	Z26	X27	Y27	Z27	X28	Y28	Z28	X29	Y29	Z29	X30	Y30	Z30	X31	Y31	Z31	X32	Y32	Z32	X33	Y33	Z33	X34	Y34	Z34	X35	Y35	Z35	X36	Y36	Z36	X37	Y37	Z37	X38	Y38	Z38	X39	Y39	Z39	X40	Y40	Z40	X41	Y41	Z41	X42	Y42	Z42	X43	Y43	Z43	X44	Y44	Z44	X45	Y45	Z45	X46	Y46	Z46	X47	Y47	Z47	X48	Y48	Z48	X49	Y49	Z49	X50	Y50	Z50	X51	Y51	Z51	X52	Y52	Z52	X53	Y53	Z53	

408	4.07	562.2994384765625	961.6873779296875	444.3201599121094	635.7807006835938	959.1279296875	345.1125183105469	608.8059692382812	1035.88134765625	389.7421569824219	796.156494140625	1196.932739257812	503.0295104980469	599.3477783203125	1137.865234375	380.9725646972656	636.6055297851562	1369.05029296875	399.812744140625	766.7643432617188	1291.776123046875	482.0203247070312	548.0617065429688	1249.6806640625	448.8034057617188	661.4025268554688	1313.240844726562	313.7423706054688	780.7168579101562	1359.48388671875	302.2171936035156	802.2032470703125	1234.19482421875	242.4818725585938	824.6306762695312	1027.058227539062	215.3182067871094	730.310791015625	1014.321105957031	243.7642211914062	903.5441284179688	849.980224609375	283.0376281738281	845.0211791992188	947.5314331054688	220.7922210693359	920.3342895507812	694.2227172851562	292.6113586425781	878.4638061523438	758.1355590820312	228.2887573242188	927.5687866210938	774.8218994140625	266.8916320800781	604.37841796875	1366.261108398438	554.7637939453125	557.926513671875	1301.349609375	595.5845336914062	528.201171875	1035.798461914062	642.8140869140625	506.9657592773438	1018.505615234375	581.4651489257812	629.3269653320312	836.4752807617188	684.1345825195312	541.1636962890625	814.0580444335938	680.4015502929688	526.9898681640625	982.7566528320312	653.8610229492188	628.3803100585938	676.1590576171875	694.4907836914062	628.0776977539062	743.9527587890625	716.0810546875	560.1024780273438	741.2573852539062	696.4608764648438	599.9797973632812	1500.74658203125	475.9251098632812	762.3333129882812	1606.168701171875	425.1206665039062	689.5028686523438	1592.142333984375	528.6272583007812	681.5084838867188	1510.272094726562	338.99365234375	799.4969482421875	884.6957397460938	304.8168640136719	574.3746948242188	868.451416015625	613.0159912109375	694.2627563476562	915.565673828125	613.3148193359375	832.9050903320312	923.0494384765625	414.3555297851562	841.8151245117188	473.6710510253906	407.2955627441406	840.51904296875	628.1781005859375	367.7215270996094	789.0296630859375	40.56049728393555	403.2671813964844	837.0324096679688	317.6137390136719	404.8909912109375	923.4147338867188	34.15499114990234	560.1915893554688	840.349853515625	40.09455490112305	546.6611328125	884.269775390625	33.68778228759766	454.5067443847656	717.8491821289062	41.44659805297852	434.1164855957031	663.90966796875	489.9173278808594	637.9960327148438	612.14892578125	742.6901245117188	639.1470947265625	471.7654113769531	131.5491333007812	489.1820068359375	631.6705932617188	360.6116027832031	614.9075317382812	610.83837890625	43.30025863647461	598.7645874023438	604.3092651367188	65.28815460205078	527.93017578125	518.1822509765625	78.30669403076172	574.6541748046875	477.3999633789062	144.8197326660156	420.5584716796875	851.3953857421875	809.3197021484375	215.6095581054688	
409	4.08	566.650390625	962.4338989257812	445.7315063476562	640.2411499023438	959.5111694335938	346.5980224609375	613.5370483398438	1036.570922851562	390.9862365722656	800.9271850585938	1197.331298828125	504.7614135742188	604.265380859375	1138.646484375	381.9572448730469	641.9168701171875	1369.713500976562	401.2406005859375	771.7164916992188	1292.22802734375	483.7634887695312	553.12060546875	1250.437744140625	449.8070983886719	666.9681396484375	1313.933837890625	315.2048645019531	786.3350830078125	1360.152587890625	304.0956115722656	808.2410888671875	1234.853759765625	244.4716949462891	831.3142700195312	1027.8955078125	217.1871490478516	737.093505859375	1014.677917480469	245.6617889404297	912.0850830078125	852.2278442382812	285.0351867675781	852.2334594726562	948.6903076171875	223.0245819091797	931.6621704101562	696.9400024414062	295.3476257324219	887.8003540039062	759.7271728515625	231.1048583984375	937.1098022460938	777.496826171875	268.9620971679688	609.2222900390625	1366.854614257812	556.0806884765625	562.541015625	1301.998291015625	596.7264404296875	532.331787109375	1036.478759765625	643.896728515625	511.3229675292969	1019.16064453125	582.433837890625	633.4927368164062	837.3529663085938	685.7528076171875	545.396240234375	814.8377685546875	681.78515625	531.0993041992188	983.447509765625	654.9558715820312	632.7183837890625	677.0665283203125	696.5719604492188	632.2640380859375	744.9299926757812	717.9839477539062	564.333740234375	742.1017456054688	698.1288452148438	604.9039916992188	1501.016235351562	477.4932556152344	767.1136474609375	1606.923217773438	427.1029968261719	694.0889892578125	1592.658203125	530.4241333007812	686.76513671875	1510.818115234375	340.7239074707031	803.7882080078125	884.7796630859375	306.5484313964844	579.0350952148438	869.7838745117188	614.7047729492188	698.5640869140625	916.7142944335938	614.9332885742188	837.316650390625	923.3738403320312	416.0350341796875	843.6327514648438	473.3827514648438	408.0023193359375	843.2853393554688	627.9925537109375	368.9852600097656	789.0628662109375	40.68517684936523	403.4650268554688	837.9979858398438	317.3969116210938	405.4011535644531	923.7490234375	33.89481353759766	560.1607055664062	840.49365234375	39.92409515380859	546.7760009765625	884.3765869140625	33.62325668334961	454.5787048339844	717.8423461914062	41.45426177978516	434.3316955566406	668.5491943359375	491.2985229492188	640.9050903320312	616.2017211914062	744.1237182617188	641.3120727539062	486.6887817382812	123.8050842285156	497.6959838867188	639.0620727539062	360.0598449707031	619.601318359375	628.0952758789062	42.85726928710938	610.178955078125	621.2448120117188	63.00402450561523	538.7789306640625	534.4719848632812	74.18668365478516	584.6195068359375	492.4132080078125	135.6944122314453	428.7415161132812	859.6885375976562	810.357421875	218.5544128417969	
410	4.09	570.9639892578125	963.1302490234375	447.176513671875	644.6612548828125	959.8173217773438	348.1167602539062	618.1260986328125	1037.16259765625	392.2176513671875	805.5836791992188	1197.69384765625	506.4664001464844	609.0348510742188	1139.3974609375	382.9854125976562	647.052001953125	1370.325439453125	402.7064514160156	776.5359497070312	1292.634033203125	485.4883728027344	558.0225830078125	1251.132690429688	450.9048461914062	672.3175659179688	1314.565673828125	316.6967468261719	791.7230224609375	1360.767700195312	305.9567565917969	814.1083374023438	1235.47607421875	246.4486694335938	837.9483642578125	1028.682983398438	219.1847381591797	743.7721557617188	1014.995300292969	247.4783630371094	920.35888671875	854.37744140625	287.1340026855469	859.3702392578125	949.8070068359375	225.3311767578125	942.5556640625	699.5859985351562	298.2309265136719	896.9246826171875	761.2355346679688	233.9993286132812	946.3682250976562	780.0701904296875	271.2013549804688	613.9629516601562	1367.399780273438	557.4553833007812	567.0755615234375	1302.592895507812	597.9442749023438	536.4595947265625	1037.10546875	645.0841674804688	515.600341796875	1019.767517089844	583.5372314453125	637.6552734375	838.1455688476562	687.3518676757812	549.6248779296875	815.5537109375	683.22412109375	535.2122192382812	984.077880859375	656.1485595703125	637.0081176757812	677.8833618164062	698.57861328125	636.4569091796875	745.8079833984375	719.8336791992188	568.5518188476562	742.8816528320312	699.8231201171875	609.7107543945312	1501.276123046875	479.0626220703125	771.8028564453125	1607.609375	429.0570068359375	698.5839233398438	1593.14892578125	532.2003173828125	691.9085693359375	1511.30712890625	342.4457397460938	808.0103759765625	884.8139038085938	308.301513671875	583.6041259765625	871.0499877929688	616.3822631835938	702.8515014648438	917.8385620117188	616.6041870117188	841.6546020507812	923.6676635742188	417.7316284179688	845.5115966796875	473.0841674804688	408.7743225097656	846.1043701171875	627.8048706054688	370.3326416015625	789.1068115234375	40.79359436035156	403.6820678710938	838.9974975585938	317.1734924316406	405.9608764648438	924.0870971679688	33.52615737915039	560.2125244140625	840.6591796875	39.7286491394043	546.9183349609375	884.5045776367188	33.55715560913086	454.6668090820312	717.8428344726562	41.48630905151367	434.5629577636719	672.7544555664062	492.5327453613281	643.485107421875	620.1353149414062	745.45751953125	643.4691162109375	501.4889831542969	116.1472930908203	506.4728088378906	646.0501708984375	359.3604125976562	624.0629272460938	645.182373046875	42.70157623291016	621.4891967773438	637.968017578125	60.96207046508789	549.5640258789062	550.6621704101562	70.30204010009766	594.7025146484375	507.1951293945312	126.5957336425781	437.179443359375	867.827392578125	811.2882080078125	221.5442047119141	
411	4.1	575.2454223632812	963.7728881835938	448.6656799316406	649.0448608398438	960.0652465820312	349.6874694824219	622.5709228515625	1037.6650390625	393.4667053222656	810.1231079101562	1198.027709960938	508.1506958007812	613.6575317382812	1140.102172851562	384.0776977539062	652.005615234375	1370.887939453125	404.2108154296875	781.2174682617188	1293.000854492188	487.1998291015625	562.7554931640625	1251.763671875	452.111083984375	677.4393310546875	1315.131591796875	318.2214050292969	796.8726196289062	1361.328979492188	307.7989196777344	819.7904663085938	1236.05908203125	248.4127349853516	844.5238647460938	1029.416015625	221.3131103515625	750.3428955078125	1015.268859863281	249.2303924560547	928.3621215820312	856.412353515625	289.3637084960938	866.4277954101562	950.8797607421875	227.7141265869141	952.96044921875	702.11767578125	301.2432250976562	905.829345703125	762.6655883789062	236.9584503173828	955.3279418945312	782.5130004882812	273.6246948242188	618.59375	1367.898559570312	558.8895263671875	571.52490234375	1303.133544921875	599.2470092773438	540.5800170898438	1037.681762695312	646.3760375976562	519.8006591796875	1020.328125	584.7716674804688	641.815185546875	838.85498046875	688.9338989257812	553.8489379882812	816.2015991210938	684.716552734375	539.3276977539062	984.6497192382812	657.441162109375	641.261474609375	678.6115112304688	700.5011596679688	640.6610107421875	746.5869750976562	721.6257934570312	572.7621459960938	743.5905151367188	701.5345458984375	614.4022827148438	1501.532348632812	480.6272583007812	776.4029541015625	1608.226928710938	430.9849243164062	702.9920043945312	1593.613159179688	533.9594116210938	696.9349365234375	1511.747924804688	344.1560974121094	812.1688232421875	884.81298828125	310.0799560546875	588.0221557617188	872.2095947265625	618.0301513671875	707.10693359375	918.9063720703125	618.32080078125	845.92822265625	923.9324951171875	419.4562072753906	847.4360961914062	472.77685546875	409.636962890625	848.9759521484375	627.6177978515625	371.7882385253906	789.152587890625	40.89165115356445	403.9296264648438	840.0283203125	316.9473876953125	406.5892944335938	924.4298095703125	33.07064437866211	560.3412475585938	840.8456420898438	39.50912094116211	547.0943603515625	884.6377563476562	33.48876571655273	454.7803039550781	717.8439331054688	41.53662490844727	434.8168640136719	676.5567016601562	493.5903930664062	645.7178955078125	624.017822265625	746.6729736328125	645.6240844726562	516.0863647460938	108.6795806884766	515.5271606445312	652.653564453125	358.5491333007812	628.2892456054688	662.08154296875	42.85122680664062	632.5464477539062	654.4044189453125	59.21284866333008	560.1588134765625	566.7233276367188	66.70790863037109	604.8507080078125	521.6179809570312	117.6627426147461	445.897216796875	875.8306274414062	812.1253051757812	224.5694732666016	
